<?xml version="1.0" standalone="no"?>
<!DOCTYPE svg PUBLIC "-//W3C//DTD SVG 20010904//EN"
 "http://www.w3.org/TR/2001/REC-SVG-20010904/DTD/svg10.dtd">
<svg version="1.0" xmlns="http://www.w3.org/2000/svg"
 width="300.000000pt" height="96.000000pt" viewBox="0 0 300.000000 96.000000"
 preserveAspectRatio="xMidYMid meet">
<metadata>
Created by potrace 1.10, written by Peter Selinger 2001-2011
</metadata>
<g transform="translate(0.000000,96.000000) scale(0.100000,-0.100000)"
fill="#ffffff" stroke="none">
<path d="M150 635 c0 -8 5 -15 10 -15 6 0 10 7 10 15 0 8 -4 15 -10 15 -5 0
-10 -7 -10 -15z"/>
<path d="M2681 573 c-1 -31 -1 -31 -17 -83 -8 -25 -14 -73 -14 -107 0 -60 1
-63 24 -63 14 0 28 5 31 10 4 6 -5 10 -19 10 -14 0 -26 5 -26 10 0 6 14 10 31
10 l31 0 -5 58 c-7 67 -35 187 -36 155z m24 -122 c3 -5 1 -12 -4 -15 -13 -8
-42 4 -35 15 7 12 31 12 39 0z m0 -41 c4 -6 -5 -10 -20 -10 -15 0 -24 4 -20
10 3 6 12 10 20 10 8 0 17 -4 20 -10z m5 -30 c0 -5 -12 -10 -27 -10 -22 0 -25
2 -13 10 20 13 40 13 40 0z"/>
<path d="M2787 513 c-9 -43 -18 -97 -19 -120 -1 -29 -6 -43 -16 -43 -7 0 -10
5 -6 12 5 7 3 8 -5 4 -7 -5 -10 -14 -7 -21 7 -20 -15 -35 -53 -37 l-36 -1 33
-4 c20 -3 32 -9 29 -16 -5 -18 -38 -21 -48 -5 -7 10 -9 9 -9 -4 0 -13 8 -18
31 -18 19 0 28 -4 23 -11 -3 -6 -19 -9 -34 -6 -24 5 -27 3 -22 -19 3 -17 0
-24 -12 -24 -9 0 -16 8 -16 19 0 11 -4 23 -10 26 -5 3 -10 19 -10 36 0 23 4
29 23 30 21 0 21 1 2 9 -33 14 -35 12 -35 -36 0 -31 -4 -44 -12 -42 -15 5 -12
176 4 195 6 8 5 20 -3 35 -7 13 -16 39 -20 58 l-7 35 -1 -38 c0 -20 -7 -46
-13 -57 -10 -16 -10 -24 0 -40 7 -12 12 -56 11 -117 -1 -98 -2 -102 -13 -50
-5 20 -12 27 -31 27 -20 0 -24 -6 -27 -32 -2 -25 -7 -32 -20 -30 -10 2 -18 -2
-18 -9 0 -6 8 -9 20 -6 13 3 20 0 20 -9 0 -20 -37 -17 -49 4 -9 15 -10 14 -8
-6 1 -12 8 -22 17 -22 121 -3 555 2 559 6 3 2 -3 17 -12 33 -9 15 -14 31 -11
34 4 3 -5 9 -20 13 -23 5 -26 11 -26 50 0 42 -1 44 -30 44 -19 0 -30 -5 -30
-14 0 -8 -7 -16 -15 -20 -8 -3 -15 -16 -15 -30 0 -13 7 -26 15 -30 8 -3 15
-15 15 -26 0 -11 -7 -20 -15 -20 -8 0 -15 6 -15 13 0 8 -18 12 -61 10 l-61 -2
5 33 c7 49 17 63 31 40 11 -19 12 -25 15 -46 1 -10 3 -10 9 -2 4 7 18 14 32
17 25 4 25 4 -2 6 -29 1 -38 15 -15 24 10 4 10 6 0 6 -7 1 -13 7 -13 15 0 8 6
17 13 19 10 4 10 6 0 6 -21 2 -15 21 6 21 11 0 23 -4 26 -10 3 -5 1 -10 -6
-10 -8 0 -9 -4 0 -13 8 -10 7 -17 -1 -25 -9 -9 -9 -12 0 -12 18 0 25 44 17
108 -9 77 -16 103 -25 97 -5 -3 -6 13 -3 35 9 67 -3 45 -20 -37z m-215 -75
c-16 -16 -35 3 -26 26 6 16 8 16 22 2 13 -12 14 -18 4 -28z m248 7 c0 -8 -6
-15 -14 -15 -17 0 -28 14 -19 24 12 12 33 6 33 -9z m1 -40 c0 -5 -9 -11 -21
-13 -20 -3 -27 8 -13 22 10 9 34 3 34 -9z m99 -96 c0 -5 -4 -8 -8 -5 -5 3 -9
-1 -9 -9 0 -8 4 -12 9 -9 4 3 8 -10 8 -29 0 -30 -3 -34 -20 -30 -22 6 -22 25
0 35 11 5 9 7 -7 7 -18 1 -23 7 -23 26 0 20 5 25 25 25 14 0 25 -5 25 -11z
m-396 -63 c-6 -27 12 -44 29 -27 18 18 37 13 37 -9 0 -16 -7 -20 -30 -20 -16
0 -30 4 -30 9 0 5 -6 8 -12 7 -15 -1 -18 5 -18 39 0 16 6 25 15 25 11 0 14 -7
9 -24z m421 5 c-3 -5 7 -19 21 -30 l27 -21 -32 0 c-28 0 -31 3 -31 30 0 17 5
30 11 30 5 0 8 -4 4 -9z m-200 -31 c9 -14 75 -13 75 1 0 8 4 8 14 0 8 -7 25
-10 38 -7 14 2 31 0 38 -4 8 -5 -28 -10 -88 -12 -74 -2 -102 0 -102 9 0 6 -15
14 -32 16 -29 3 -28 4 9 5 23 1 45 -2 48 -8z"/>
<path d="M450 556 c0 -9 7 -16 16 -16 17 0 14 22 -4 28 -7 2 -12 -3 -12 -12z"/>
<path d="M580 549 c-28 -15 -31 -19 -13 -19 12 0 28 7 36 15 13 13 16 13 27 0
7 -8 22 -15 34 -14 l21 0 -21 9 c-12 5 -25 13 -29 19 -8 14 -12 13 -55 -10z"/>
<path d="M1342 519 c2 -6 8 -10 13 -10 5 0 11 4 13 10 2 6 -4 11 -13 11 -9 0
-15 -5 -13 -11z"/>
<path d="M705 505 c-24 -11 -26 -14 -9 -15 11 0 26 6 33 13 10 10 14 9 22 -5
6 -10 17 -18 26 -18 11 0 8 6 -10 20 -14 11 -27 20 -29 19 -1 0 -16 -7 -33
-14z"/>
<path d="M1550 389 c0 -84 4 -128 10 -124 6 3 10 1 10 -4 0 -6 -16 -11 -35
-11 -19 0 -35 -3 -35 -7 0 -5 26 -6 57 -4 52 3 56 2 44 -13 -14 -17 -71 -22
-71 -7 0 5 -9 7 -20 4 -11 -3 -18 -9 -15 -13 3 -5 0 -12 -6 -16 -7 -4 -9 -3
-6 3 4 6 1 15 -6 21 -17 14 -98 42 -91 31 3 -5 1 -9 -5 -9 -15 0 -25 48 -13
63 13 16 62 21 62 6 0 -5 -4 -7 -10 -4 -5 3 -7 0 -5 -7 9 -24 45 -19 46 5 4
77 -34 122 -101 122 -22 0 -40 -3 -40 -6 0 -4 -14 -10 -31 -14 -36 -8 -74 -41
-56 -49 7 -2 -4 -5 -23 -6 -20 -1 -27 -4 -17 -7 32 -8 67 6 67 27 0 15 7 20
25 20 14 0 25 -5 25 -12 0 -6 9 0 20 12 l21 24 6 -22 c3 -12 9 -22 14 -22 5 0
6 7 3 15 -5 11 -2 13 12 8 13 -5 15 -3 9 7 -5 9 -4 11 4 6 9 -6 9 -13 -2 -29
-12 -18 -22 -20 -73 -19 -42 2 -55 0 -44 -7 8 -6 27 -8 43 -6 l27 5 -4 -70
c-4 -69 0 -80 21 -59 8 8 13 8 17 0 5 -7 13 -7 28 2 16 9 22 9 25 0 2 -7 11
-9 19 -6 8 3 14 -1 14 -11 0 -14 -14 -16 -97 -16 -87 1 -96 2 -79 15 10 8 23
12 27 9 5 -3 9 7 8 23 0 16 -3 22 -6 13 -12 -30 -28 -29 -45 3 -9 18 -17 40
-18 50 0 15 -3 15 -20 5 -11 -7 -16 -14 -10 -16 22 -8 8 -22 -22 -23 l-33 -2
35 -7 35 -7 -37 -2 -38 -1 0 55 c0 30 -4 55 -10 55 -5 0 -10 -9 -10 -21 0 -11
-4 -18 -9 -15 -5 3 -11 -14 -13 -39 l-3 -44 60 -3 c50 -3 60 -6 60 -21 0 -16
-10 -19 -67 -21 l-68 -3 0 82 c0 60 -3 83 -12 82 -48 -1 -67 4 -62 17 9 23 57
24 76 1 17 -19 17 -19 18 25 0 25 3 54 6 66 5 18 1 20 -30 20 -35 -1 -36 -2
-36 -43 0 -39 -2 -43 -25 -43 -24 0 -25 -1 -20 -62 3 -42 0 -65 -8 -70 -7 -4
-12 -22 -12 -40 0 -32 -1 -32 -52 -35 l-53 -3 0 66 0 66 33 -3 c48 -3 67 0 67
11 0 6 -45 10 -115 10 -70 0 -115 -4 -115 -10 0 -5 14 -10 30 -10 l30 0 0 -65
c0 -63 -1 -65 -26 -65 -24 0 -26 3 -22 35 2 19 1 35 -3 35 -13 0 -30 -29 -27
-47 2 -11 -3 -18 -12 -18 -10 0 -16 13 -18 43 -2 28 -8 42 -18 42 -8 0 -14 5
-14 10 0 6 -11 10 -25 10 -14 0 -25 -5 -25 -11 0 -6 8 -8 19 -4 17 5 19 2 14
-37 -7 -51 -8 -52 -28 -45 -11 5 -15 23 -15 76 0 67 -1 71 -25 77 -42 11 -75
-3 -75 -31 0 -14 -4 -25 -10 -25 -5 0 -10 20 -10 44 0 49 -22 79 -35 49 -5
-10 -7 -24 -6 -30 1 -7 -8 -13 -21 -14 -23 -1 -22 -1 2 -9 17 -5 -5 -8 -65 -9
l-91 -1 1 -52 c0 -32 -5 -53 -12 -55 -17 -6 -17 34 0 40 9 4 9 6 0 6 -7 1 -13
8 -13 16 0 8 6 15 13 15 8 0 7 4 -3 10 -13 9 -13 11 0 20 8 5 24 10 35 11 14
0 16 2 5 6 -17 7 -40 29 -40 38 0 3 4 3 10 0 6 -3 7 1 4 10 -12 29 -34 -5 -34
-51 0 -32 -4 -44 -15 -44 -8 0 -15 5 -15 10 0 6 -6 10 -13 10 -7 0 -21 30 -31
66 l-19 67 -14 -53 c-11 -43 -11 -55 -1 -62 10 -6 10 -8 1 -8 -7 0 -10 -7 -7
-15 4 -8 2 -15 -2 -15 -5 0 -7 -25 -6 -55 4 -53 3 -55 -22 -55 -24 0 -26 4
-26 40 0 34 -3 40 -22 41 -20 1 -20 2 -4 6 20 5 46 27 46 37 0 13 -31 5 -36
-9 -4 -8 -12 -15 -20 -15 -9 0 -14 -12 -14 -36 0 -31 -3 -36 -20 -31 -12 3
-20 0 -20 -7 0 -20 40 -13 46 8 6 18 7 18 20 -5 12 -23 11 -24 -29 -30 -41 -6
1473 -13 2053 -10 249 2 296 4 298 16 2 10 -4 15 -17 15 -18 0 -21 6 -21 45 0
46 -11 56 -34 32 -24 -24 -23 -42 3 -59 l26 -18 -32 0 c-31 0 -33 2 -33 35 0
19 -4 35 -9 35 -5 0 -12 10 -15 23 l-6 22 -20 -24 c-15 -17 -26 -22 -45 -17
-14 4 -25 12 -25 19 0 7 -13 24 -30 39 -16 14 -30 21 -30 16 0 -19 -34 -37
-61 -31 -16 3 -30 -1 -38 -11 -24 -29 -58 -18 -52 17 0 4 -5 7 -13 7 -9 0 -12
7 -9 20 5 19 -4 25 -34 21 -6 -1 -15 4 -19 10 -5 8 1 10 20 7 23 -5 26 -3 20
16 -4 11 -18 34 -31 50 l-24 29 3 -89 3 -89 40 -6 40 -5 -40 -6 c-33 -4 -29
-5 25 -7 45 -2 57 -5 40 -10 -17 -5 -21 -9 -12 -15 6 -4 12 -19 12 -34 0 -21
-5 -28 -20 -28 -16 0 -20 7 -20 38 0 37 -20 53 -35 28 -4 -6 -1 -9 7 -8 8 2
14 -9 16 -31 3 -28 1 -33 -13 -27 -9 3 -21 6 -26 6 -5 0 -9 14 -9 30 0 17 -4
30 -10 30 -5 0 -10 20 -10 44 0 45 -19 77 -21 34 0 -13 -3 -32 -5 -43 -3 -11
-7 -36 -11 -57 -4 -28 -11 -37 -29 -41 -22 -4 -24 -1 -24 30 0 28 3 34 16 29
8 -3 12 -2 9 4 -15 24 -35 9 -35 -25 0 -19 -4 -35 -9 -35 -5 0 -16 -3 -24 -6
-12 -4 -16 3 -19 27 -2 18 -9 35 -17 37 -11 4 -12 -3 -7 -32 6 -32 5 -36 -14
-36 -11 0 -20 4 -20 10 0 5 -7 7 -15 4 -11 -5 -13 -2 -9 10 5 13 9 14 20 5 16
-13 30 -6 19 10 -3 6 -22 11 -41 11 l-34 0 0 104 c0 111 -7 166 -21 166 -5 0
-9 -59 -9 -131z m-437 34 c-4 -10 -9 -11 -19 -2 -11 9 -12 15 -3 26 14 17 31
-1 22 -24z m306 -60 c-9 -11 -10 -14 -1 -9 7 4 12 1 12 -8 0 -11 -10 -16 -31
-16 -18 0 -28 4 -24 10 4 6 12 7 18 4 7 -4 9 -3 4 1 -4 5 0 17 10 27 20 22 31
15 12 -9z m501 -3 c0 -5 -11 -10 -25 -10 -14 0 -25 5 -25 10 0 6 11 10 25 10
14 0 25 -4 25 -10z m-1730 -37 c0 -36 -12 -62 -25 -56 -8 2 -11 11 -8 19 3 8
10 11 15 7 7 -4 9 4 6 21 -3 14 -1 26 3 26 5 0 9 -8 9 -17z m390 6 c0 -5 -4
-7 -10 -4 -5 3 -10 1 -10 -4 0 -6 -4 -11 -8 -11 -5 0 -9 7 -9 15 0 8 9 15 19
15 10 0 18 -5 18 -11z m515 -70 c0 -38 -1 -69 -2 -69 -1 0 -12 14 -24 31 -30
43 -32 107 -4 112 11 1 22 1 25 -1 3 -2 5 -35 5 -73z m835 65 c0 -2 -14 -4
-31 -4 -16 0 -28 4 -25 9 5 8 56 3 56 -5z m204 0 c23 -22 20 -34 -9 -34 -14 0
-25 5 -25 11 0 8 -5 8 -15 -1 -21 -17 -19 -4 3 19 21 24 27 25 46 5z m-1634
-4 c0 -5 -6 -10 -12 -11 -10 0 -10 -2 0 -6 6 -2 12 -11 12 -19 0 -8 -6 -14
-12 -15 -10 0 -10 -2 0 -6 16 -6 16 -46 0 -41 -24 8 -21 108 2 108 6 0 10 -4
10 -10z m390 -60 c0 -68 -1 -70 -25 -70 -24 0 -25 2 -25 64 0 59 2 65 23 69
12 2 23 5 25 6 1 0 2 -30 2 -69z m-437 20 c-4 -21 0 -36 12 -50 9 -10 14 -24
10 -29 -7 -12 -152 -15 -180 -5 -14 6 -14 8 2 26 11 12 16 32 14 54 l-3 34 76
0 75 0 -6 -30z m1575 18 c-2 -6 -10 -14 -16 -16 -7 -2 -10 2 -6 12 7 18 28 22
22 4z m-1442 -15 c3 -10 12 -30 20 -46 21 -38 10 -48 -47 -46 -49 3 -49 3 -49
37 0 18 7 40 15 49 22 21 29 10 14 -19 -19 -34 -21 -52 -4 -38 8 7 14 15 13
18 -1 4 2 19 6 35 9 31 24 35 32 10z m-360 -18 c3 -14 10 -25 15 -25 5 0 6 6
3 14 -3 8 -1 17 5 21 8 4 10 -8 7 -37 l-4 -43 -47 -3 c-41 -3 -47 -1 -41 13 3
9 6 21 6 26 0 6 5 7 10 4 6 -4 9 -3 8 2 -4 14 13 53 22 53 6 0 12 -11 16 -25z
m1829 15 c-4 -6 33 -10 104 -10 l111 0 0 -30 0 -30 -125 0 -125 0 0 25 c0 14
6 32 13 40 14 16 31 20 22 5z m-53 -45 c-2 -19 -8 -35 -13 -35 -5 0 -9 16 -9
35 0 22 5 35 13 35 9 0 12 -11 9 -35z m-1302 0 c0 -14 -4 -25 -10 -25 -5 0
-10 11 -10 25 0 14 5 25 10 25 6 0 10 -11 10 -25z m1165 -45 c-3 -5 -19 -10
-36 -10 -16 0 -29 5 -29 10 0 6 16 10 36 10 21 0 33 -4 29 -10z m333 3 c-16
-2 -40 -2 -55 0 -16 2 -3 4 27 4 30 0 43 -2 28 -4z m165 0 c-13 -2 -35 -2 -50
0 -16 2 -5 4 22 4 28 0 40 -2 28 -4z"/>
<path d="M333 265 c0 -22 2 -30 4 -17 2 12 2 30 0 40 -3 9 -5 -1 -4 -23z"/>
<path d="M350 267 c0 -20 4 -37 9 -37 10 0 8 57 -3 67 -3 3 -6 -10 -6 -30z"/>
<path d="M383 265 c0 -22 2 -30 4 -17 2 12 2 30 0 40 -3 9 -5 -1 -4 -23z"/>
<path d="M400 271 c0 -17 5 -33 10 -36 6 -4 10 8 10 29 0 20 -4 36 -10 36 -5
0 -10 -13 -10 -29z"/>
<path d="M433 265 c0 -22 2 -30 4 -17 2 12 2 30 0 40 -3 9 -5 -1 -4 -23z"/>
<path d="M2034 240 c0 -11 4 -20 8 -20 4 0 8 9 8 20 0 11 -4 20 -8 20 -4 0 -8
-9 -8 -20z"/>
<path d="M2225 250 c3 -5 13 -10 21 -10 8 0 14 5 14 10 0 6 -9 10 -21 10 -11
0 -17 -4 -14 -10z"/>
<path d="M2190 235 c0 -8 5 -15 10 -15 6 0 10 7 10 15 0 8 -4 15 -10 15 -5 0
-10 -7 -10 -15z"/>
<path d="M76 494 c-9 -24 -7 -27 9 -10 17 17 19 26 6 26 -5 0 -12 -7 -15 -16z"/>
<path d="M2250 485 c-28 -16 -9 -21 21 -5 13 7 19 7 19 0 0 -5 10 -9 23 -9 16
1 18 2 5 6 -10 2 -18 9 -18 14 0 13 -21 11 -50 -6z"/>
<path d="M381 480 c0 -8 -13 -24 -27 -35 -33 -26 -27 -68 9 -61 12 2 31 0 42
-5 14 -6 7 -8 -27 -7 -26 1 -50 -1 -54 -5 -4 -4 23 -7 61 -7 54 0 65 3 57 13
-6 7 -9 23 -6 34 4 15 -1 26 -19 38 -14 9 -28 24 -30 33 -3 12 -5 13 -6 2z
m30 -40 c22 -12 26 -40 5 -40 -16 0 -46 26 -46 41 0 12 17 11 41 -1z"/>
<path d="M1185 443 c-4 -27 -7 -54 -8 -62 -1 -8 5 -16 13 -18 13 -4 13 -3 0 6
-12 8 -8 11 18 11 27 0 32 4 32 24 0 51 -12 86 -31 86 -14 0 -19 -11 -24 -47z
m40 -3 c3 -5 -3 -10 -15 -10 -12 0 -18 5 -15 10 3 6 10 10 15 10 5 0 12 -4 15
-10z"/>
<path d="M1793 463 c-12 -17 -27 -49 -34 -71 -7 -23 -16 -42 -20 -42 -4 0 -9
-10 -11 -22 -2 -15 -11 -24 -25 -26 -35 -5 -24 -32 15 -38 19 -3 14 14 -5 19
-10 3 9 6 42 7 l60 3 -45 7 -45 7 45 3 45 3 -40 7 c-37 7 -38 7 -10 10 17 1
33 2 37 1 11 -1 20 59 16 112 l-3 49 -22 -29z m7 -73 c0 -5 -7 -10 -15 -10 -8
0 -15 5 -15 10 0 6 7 10 15 10 8 0 15 -4 15 -10z m5 -30 c-3 -5 -15 -10 -26
-10 -10 0 -19 5 -19 10 0 6 12 10 26 10 14 0 23 -4 19 -10z"/>
<path d="M2140 465 c-15 -8 -19 -14 -10 -14 8 -1 21 3 29 8 9 6 19 4 28 -5 8
-8 19 -14 24 -14 5 0 0 9 -11 20 -24 24 -27 24 -60 5z"/>
<path d="M682 424 c4 -21 22 -23 26 -1 2 10 -3 17 -13 17 -10 0 -15 -6 -13
-16z"/>
<path d="M2348 397 c-4 -38 12 -161 23 -172 9 -8 -2 164 -11 190 -6 16 -8 12
-12 -18z"/>
<path d="M1291 325 c0 -5 4 -17 9 -25 5 -8 10 -10 10 -5 0 6 5 3 10 -5 8 -13
10 -12 10 3 0 9 -6 17 -14 17 -8 0 -17 6 -19 13 -3 6 -6 8 -6 2z"/>
<path d="M780 290 c0 -11 5 -20 10 -20 6 0 10 9 10 20 0 11 -4 20 -10 20 -5 0
-10 -9 -10 -20z"/>
<path d="M966 294 c-9 -25 -7 -28 11 -13 9 8 17 12 19 9 1 -3 6 0 11 5 4 6 4
7 -1 3 -5 -4 -15 -3 -21 2 -9 8 -14 6 -19 -6z"/>
<path d="M1399 271 c11 -20 41 -19 41 2 0 6 -3 7 -6 4 -4 -3 -15 -2 -26 4 -18
9 -18 8 -9 -10z"/>
<path d="M929 266 c9 -11 10 -20 1 -35 -6 -12 -7 -21 -1 -21 11 0 21 24 21 51
0 11 -7 19 -16 19 -13 0 -14 -3 -5 -14z"/>
<path d="M2395 239 c-4 -6 -3 -15 3 -21 6 -6 11 -4 15 6 7 18 -9 31 -18 15z"/>
<path d="M1170 218 c0 -4 11 -8 25 -8 14 0 25 4 25 10 0 5 -11 9 -25 8 -14 -1
-25 -6 -25 -10z"/>
</g>
</svg>
